<svg xmlns="http://www.w3.org/2000/svg" viewBox="0 0 240 240" role="img" aria-labelledby="title desc">
  <title id="title">Research Notebook logo</title>
  <desc id="desc">Abstract interconnected giraffe-pattern inspired nodes in warm orange and yellow.</desc>
  <defs>
    <linearGradient id="g1" x1="0" y1="0" x2="1" y2="1">
      <stop offset="0" stop-color="#FCD34D"/>
      <stop offset="1" stop-color="#F59E0B"/>
    </linearGradient>
    <filter id="shadow" x="-20%" y="-20%" width="140%" height="140%">
      <feDropShadow dx="0" dy="8" stdDeviation="8" flood-color="#B45309" flood-opacity=".18"/>
    </filter>
  </defs>
  <rect width="240" height="240" rx="56" fill="#FFF9E8"/>
  <g stroke="#D97706" stroke-width="10" stroke-linecap="round" stroke-linejoin="round" fill="none" opacity=".95">
    <path d="M57 69 L111 49 L161 76 L181 133 L146 182 L85 186 L52 132 Z"/>
    <path d="M111 49 L113 103 L52 132"/>
    <path d="M113 103 L161 76"/>
    <path d="M113 103 L146 182"/>
    <path d="M113 103 L85 186"/>
    <path d="M113 103 L181 133"/>
  </g>
  <g fill="url(#g1)" stroke="#FFF9E8" stroke-width="8" filter="url(#shadow)">
    <circle cx="57" cy="69" r="22"/>
    <circle cx="111" cy="49" r="20"/>
    <circle cx="161" cy="76" r="22"/>
    <circle cx="181" cy="133" r="20"/>
    <circle cx="146" cy="182" r="22"/>
    <circle cx="85" cy="186" r="20"/>
    <circle cx="52" cy="132" r="21"/>
    <circle cx="113" cy="103" r="26"/>
  </g>
  <circle cx="113" cy="103" r="10" fill="#7C2D12"/>
</svg>